<svg width="356" height="356" viewBox="0 0 356 356" fill="none" xmlns="http://www.w3.org/2000/svg">
<path d="M356 272.269H0V272.447H356V272.269Z" fill="#EBEBEB"/>
<path d="M108.58 276.569H101.118V276.747H108.58V276.569Z" fill="#EBEBEB"/>
<path d="M331.92 281.24H319.211V281.418H331.92V281.24Z" fill="#EBEBEB"/>
<path d="M271.906 276.655H229.791V276.833H271.906V276.655Z" fill="#EBEBEB"/>
<path d="M166.53 280.713H134.312V280.891H166.53V280.713Z" fill="#EBEBEB"/>
<path d="M99.4522 279.588H88.288V279.766H99.4522V279.588Z" fill="#EBEBEB"/>
<path d="M303.554 280.713H287.491V280.891H303.554V280.713Z" fill="#EBEBEB"/>
<path d="M84.137 279.503H46.2302V279.681H84.137V279.503Z" fill="#EBEBEB"/>
<path d="M168.744 240.514H31.2639C30.1869 240.512 29.1546 240.083 28.3938 239.32C27.6329 238.558 27.2055 237.525 27.2055 236.448V43.1899C27.2149 42.1191 27.6464 41.0952 28.4063 40.3407C29.1661 39.5861 30.193 39.1618 31.2639 39.16H168.744C169.822 39.16 170.856 39.5883 171.619 40.3508C172.381 41.1132 172.81 42.1473 172.81 43.2255V236.448C172.81 237.526 172.381 238.56 171.619 239.323C170.856 240.085 169.822 240.514 168.744 240.514ZM31.2639 39.3024C30.2341 39.3043 29.2471 39.7147 28.5196 40.4435C27.7921 41.1724 27.3835 42.1601 27.3835 43.1899V236.448C27.3835 237.478 27.7921 238.466 28.5196 239.194C29.2471 239.923 30.2341 240.334 31.2639 240.336H168.744C169.774 240.332 170.76 239.921 171.489 239.193C172.217 238.465 172.628 237.478 172.632 236.448V43.1899C172.628 42.16 172.217 41.1734 171.489 40.4452C170.76 39.7169 169.774 39.3062 168.744 39.3024H31.2639Z" fill="#EBEBEB"/>
<path d="M322.757 240.514H185.269C184.192 240.51 183.161 240.08 182.399 239.319C181.637 238.557 181.208 237.525 181.204 236.448V43.1899C181.215 42.1184 181.648 41.0946 182.409 40.3402C183.17 39.5859 184.198 39.1618 185.269 39.16H322.757C323.826 39.1637 324.851 39.5888 325.61 40.3432C326.368 41.0975 326.799 42.1203 326.808 43.1899V236.448C326.809 236.981 326.705 237.509 326.502 238.002C326.299 238.494 326.001 238.942 325.624 239.32C325.248 239.697 324.801 239.997 324.309 240.202C323.817 240.407 323.29 240.513 322.757 240.514ZM185.269 39.3024C184.24 39.3062 183.253 39.7169 182.525 40.4452C181.797 41.1734 181.386 42.16 181.382 43.1899V236.448C181.386 237.478 181.797 238.465 182.525 239.193C183.253 239.921 184.24 240.332 185.269 240.336H322.757C323.787 240.332 324.773 239.921 325.501 239.193C326.23 238.465 326.64 237.478 326.644 236.448V43.1899C326.64 42.16 326.23 41.1734 325.501 40.4452C324.773 39.7169 323.787 39.3062 322.757 39.3024H185.269Z" fill="#EBEBEB"/>
<path d="M145.098 60.2566H55.2156V194.782H145.098V60.2566Z" fill="#E6E6E6"/>
<path d="M143.105 60.2566H53.222V194.782H143.105V60.2566Z" fill="#F5F5F5"/>
<path d="M139.516 64.2865H56.8033V190.759H139.516V64.2865Z" fill="white"/>
<path d="M58.3199 64.2794H56.8105V190.752H58.3199V64.2794Z" fill="#E6E6E6"/>
<path d="M141.617 151.514H54.7029V156.918H141.617V151.514Z" fill="#F5F5F5"/>
<path opacity="0.4" d="M141.624 54.1476H49.4911V81.8159H141.624V54.1476Z" fill="#F0F0F0"/>
<path d="M49.3131 53.5922H148.993C149.129 53.599 149.259 53.6557 149.356 53.7516C149.453 53.8474 149.511 53.9758 149.52 54.112C149.52 54.2593 149.461 54.4006 149.357 54.5047C149.253 54.6089 149.112 54.6674 148.965 54.6674H49.2846C49.1386 54.6655 48.9991 54.6062 48.8965 54.5022C48.7939 54.3983 48.7364 54.2581 48.7364 54.112C48.7473 53.9679 48.8133 53.8334 48.9207 53.7367C49.0281 53.6399 49.1686 53.5882 49.3131 53.5922Z" fill="#E6E6E6"/>
<path d="M46.0023 54.112C46.0009 54.6584 46.1616 55.1929 46.464 55.648C46.7663 56.1031 47.1969 56.4583 47.7011 56.6687C48.2054 56.879 48.7607 56.9352 49.2968 56.83C49.833 56.7248 50.3259 56.4629 50.7133 56.0776C51.1006 55.6922 51.365 55.2007 51.473 54.665C51.5809 54.1294 51.5277 53.5738 51.3199 53.0685C51.1121 52.5632 50.7591 52.1308 50.3056 51.8261C49.8521 51.5214 49.3184 51.358 48.772 51.3566C48.4092 51.3556 48.0498 51.4262 47.7143 51.5641C47.3788 51.7021 47.0737 51.9048 46.8165 52.1607C46.5593 52.4165 46.355 52.7205 46.2153 53.0554C46.0756 53.3902 46.0033 53.7492 46.0023 54.112Z" fill="#E6E6E6"/>
<path d="M144.358 57.2306C144.55 57.2308 144.735 57.1569 144.874 57.0243C145.014 56.8917 145.096 56.7106 145.106 56.5186V54.8881C145.096 54.696 145.014 54.5149 144.874 54.3823C144.735 54.2497 144.55 54.1759 144.358 54.1761C144.262 54.1712 144.165 54.1861 144.075 54.2197C143.984 54.2533 143.901 54.305 143.831 54.3716C143.761 54.4382 143.706 54.5183 143.668 54.6071C143.63 54.6959 143.61 54.7915 143.61 54.8881V56.5257C143.61 56.7145 143.685 56.8956 143.819 57.0291C143.952 57.1627 144.134 57.2377 144.322 57.2377L144.358 57.2306Z" fill="#E6E6E6"/>
<path d="M57.672 57.2306C57.8609 57.2306 58.042 57.1556 58.1755 57.022C58.309 56.8885 58.384 56.7074 58.384 56.5186V54.8881C58.384 54.6992 58.309 54.5182 58.1755 54.3846C58.042 54.2511 57.8609 54.1761 57.672 54.1761C57.4832 54.1761 57.3021 54.2511 57.1686 54.3846C57.035 54.5182 56.96 54.6992 56.96 54.8881V56.4901C56.96 56.6789 57.035 56.86 57.1686 56.9935C57.3021 57.1271 57.4832 57.2021 57.672 57.2021V57.2306Z" fill="#E6E6E6"/>
<path d="M132.724 54.112C132.723 54.6584 132.883 55.1929 133.186 55.648C133.488 56.1031 133.918 56.4583 134.423 56.6687C134.927 56.879 135.482 56.9352 136.018 56.83C136.555 56.7248 137.048 56.4629 137.435 56.0776C137.822 55.6922 138.087 55.2007 138.195 54.665C138.303 54.1294 138.249 53.5738 138.041 53.0685C137.834 52.5632 137.481 52.1308 137.027 51.8261C136.574 51.5214 136.04 51.358 135.494 51.3566C135.131 51.3556 134.771 51.4262 134.436 51.5641C134.1 51.7021 133.795 51.9048 133.538 52.1607C133.281 52.4165 133.077 52.7205 132.937 53.0554C132.797 53.3902 132.725 53.7492 132.724 54.112Z" fill="#E6E6E6"/>
<path d="M305.612 210.966H279.609V268.609H305.612V210.966Z" fill="#E6E6E6"/>
<path d="M300.621 268.616H172.404V272.269H300.621V268.616Z" fill="#E6E6E6"/>
<path d="M279.61 210.973H167.405V268.616H279.61V210.973Z" fill="#F5F5F5"/>
<path d="M269.392 218.064H177.63V236.968H269.392V218.064Z" fill="#E6E6E6"/>
<path d="M269.392 242.614H177.63V261.518H269.392V242.614Z" fill="#E6E6E6"/>
<path d="M235.195 226.224H211.813C211.18 226.224 210.667 226.737 210.667 227.37V227.669C210.667 228.302 211.18 228.815 211.813 228.815H235.195C235.828 228.815 236.341 228.302 236.341 227.669V227.37C236.341 226.737 235.828 226.224 235.195 226.224Z" fill="#F5F5F5"/>
<path d="M235.195 250.766H211.813C211.18 250.766 210.667 251.28 210.667 251.913V252.212C210.667 252.845 211.18 253.358 211.813 253.358H235.195C235.828 253.358 236.341 252.845 236.341 252.212V251.913C236.341 251.28 235.828 250.766 235.195 250.766Z" fill="#F5F5F5"/>
<path d="M248.609 202.699C251.786 202.699 254.362 200.124 254.362 196.946C254.362 193.769 251.786 191.193 248.609 191.193C245.432 191.193 242.856 193.769 242.856 196.946C242.856 200.124 245.432 202.699 248.609 202.699Z" fill="#F5F5F5"/>
<path d="M238.228 201.396C241.394 201.396 243.96 198.83 243.96 195.665C243.96 192.499 241.394 189.933 238.228 189.933C235.063 189.933 232.496 192.499 232.496 195.665C232.496 198.83 235.063 201.396 238.228 201.396Z" fill="#F5F5F5"/>
<path d="M210.517 204.045C213.683 204.045 216.249 201.479 216.249 198.313C216.249 195.148 213.683 192.582 210.517 192.582C207.352 192.582 204.785 195.148 204.785 198.313C204.785 201.479 207.352 204.045 210.517 204.045Z" fill="#F5F5F5"/>
<path d="M225.291 206.694C228.457 206.694 231.023 204.127 231.023 200.962C231.023 197.797 228.457 195.23 225.291 195.23C222.126 195.23 219.559 197.797 219.559 200.962C219.559 204.127 222.126 206.694 225.291 206.694Z" fill="#F5F5F5"/>
<path d="M263.889 197.786C263.889 197.786 262.963 210.973 227.391 210.973C191.82 210.973 190.894 197.786 190.894 197.786H263.889Z" fill="#E6E6E6"/>
<path d="M142.756 212.411H129.776V268.702H142.756V212.411Z" fill="#E6E6E6"/>
<path d="M140.257 268.702H56.07V272.269H140.257V268.702Z" fill="#E6E6E6"/>
<path d="M129.769 212.411H53.578V268.702H129.769V212.411Z" fill="#F5F5F5"/>
<path d="M124.671 219.339H58.683V237.801H124.671V219.339Z" fill="#E6E6E6"/>
<path d="M124.671 243.312H58.683V261.774H124.671V243.312Z" fill="#E6E6E6"/>
<path d="M81.6806 221.596H101.666C102.317 221.592 102.941 221.332 103.402 220.873C103.863 220.413 104.124 219.79 104.13 219.139C104.128 218.487 103.868 217.861 103.406 217.399C102.945 216.938 102.319 216.678 101.666 216.676H81.6806C81.0297 216.681 80.407 216.943 79.9474 217.404C79.4877 217.865 79.228 218.488 79.2242 219.139C79.228 219.79 79.488 220.412 79.9478 220.872C80.4077 221.332 81.0303 221.592 81.6806 221.596Z" fill="#F5F5F5"/>
<path d="M81.6806 245.569H101.666C102.319 245.567 102.945 245.307 103.406 244.845C103.868 244.384 104.128 243.758 104.13 243.105C104.124 242.454 103.863 241.832 103.402 241.372C102.941 240.912 102.317 240.653 101.666 240.649H81.6806C81.0303 240.653 80.4077 240.913 79.9478 241.372C79.488 241.832 79.228 242.455 79.2242 243.105C79.228 243.756 79.4877 244.38 79.9474 244.841C80.407 245.302 81.0297 245.563 81.6806 245.569Z" fill="#F5F5F5"/>
<path d="M236.377 72.6525H199.111V148.509H236.377V72.6525Z" fill="#EBEBEB"/>
<path d="M235.572 72.6525H196.12V148.509H235.572V72.6525Z" fill="#F5F5F5"/>
<path d="M229.826 78.3912H201.852V142.77H229.826V78.3912Z" fill="white"/>
<path d="M306.217 113.016H285.811V136.526H306.217V113.016Z" fill="#EBEBEB"/>
<path d="M303.796 113.016H281.681V136.526H303.796V113.016Z" fill="#F5F5F5"/>
<path d="M301.945 114.874H283.54V134.675H301.945V114.874Z" fill="white"/>
<path d="M295.857 119.673H289.62C288.724 119.673 287.997 120.4 287.997 121.296V128.253C287.997 129.149 288.724 129.876 289.62 129.876H295.857C296.754 129.876 297.481 129.149 297.481 128.253V121.296C297.481 120.4 296.754 119.673 295.857 119.673Z" fill="#F0F0F0"/>
<path d="M289.77 80.3065H269.364V103.817H289.77V80.3065Z" fill="#EBEBEB"/>
<path d="M287.356 80.3065H265.241V103.817H287.356V80.3065Z" fill="#F5F5F5"/>
<path d="M285.505 82.1577H267.1V101.958H285.505V82.1577Z" fill="white"/>
<path d="M279.417 86.9566H273.18C272.284 86.9566 271.557 87.6834 271.557 88.5799V95.5362C271.557 96.4327 272.284 97.1595 273.18 97.1595H279.417C280.314 97.1595 281.041 96.4327 281.041 95.5362V88.5799C281.041 87.6834 280.314 86.9566 279.417 86.9566Z" fill="#F0F0F0"/>
<path d="M178 304.423C254.243 304.423 316.05 300.814 316.05 296.363C316.05 291.912 254.243 288.303 178 288.303C101.757 288.303 39.9503 291.912 39.9503 296.363C39.9503 300.814 101.757 304.423 178 304.423Z" fill="#F5F5F5"/>
<path d="M231.813 89.9755H78.085V240.499H231.813V89.9755Z" fill="#407BFF"/>
<path opacity="0.7" d="M231.813 89.9755H78.085V240.499H231.813V89.9755Z" fill="black"/>
<path d="M227.868 94.7886H82.0438V240.499H227.868V94.7886Z" fill="white"/>
<path d="M231.813 238.378V240.499H154.34L171.086 223.767L194.141 200.699L231.813 238.378Z" fill="#407BFF"/>
<path opacity="0.7" d="M231.813 238.378V240.499H154.34L171.086 223.767L194.141 200.699L231.813 238.378Z" fill="black"/>
<path d="M78.085 240.499V226.032L125.718 178.399L187.818 240.499H78.085Z" fill="#407BFF"/>
<path opacity="0.7" d="M78.085 240.499V226.032L125.718 178.399L187.818 240.499H78.085Z" fill="black"/>
<path d="M203.538 142.064C205.621 129.232 196.907 117.141 184.075 115.058C171.243 112.975 159.151 121.689 157.069 134.521C154.986 147.353 163.699 159.444 176.532 161.527C189.364 163.61 201.455 154.896 203.538 142.064Z" fill="#407BFF"/>
<path opacity="0.7" d="M203.538 142.064C205.621 129.232 196.907 117.141 184.075 115.058C171.243 112.975 159.151 121.689 157.069 134.521C154.986 147.353 163.699 159.444 176.532 161.527C189.364 163.61 201.455 154.896 203.538 142.064Z" fill="black"/>
<path d="M123.674 87.0143L109.038 236.825L262.038 251.773L276.674 101.962L123.674 87.0143Z" fill="#407BFF"/>
<path opacity="0.1" d="M123.675 86.9668L109.038 236.777L262.038 251.725L276.674 101.915L123.675 86.9668Z" fill="black"/>
<path d="M127.148 92.1897L112.979 237.21L258.113 251.389L272.281 106.369L127.148 92.1897Z" fill="white"/>
<path d="M259.607 97.7895L259.538 98.4981L264.626 98.9952L264.695 98.2865L259.607 97.7895Z" fill="#407BFF"/>
<path d="M243.401 95.1646L243.33 95.873L255.841 97.1241L255.912 96.4156L243.401 95.1646Z" fill="#407BFF"/>
<path opacity="0.1" d="M259.607 97.7895L259.538 98.4981L264.626 98.9952L264.695 98.2865L259.607 97.7895Z" fill="black"/>
<path opacity="0.1" d="M243.401 95.1646L243.33 95.873L255.841 97.1241L255.912 96.4156L243.401 95.1646Z" fill="black"/>
<path opacity="0.1" d="M262.237 249.649L262.03 251.763L184.928 244.23L203.219 229.207L228.41 208.488L262.237 249.649Z" fill="black"/>
<path d="M262.237 249.649L262.03 251.763L184.928 244.23L203.219 229.207L228.41 208.488L262.237 249.649Z" fill="#407BFF"/>
<path opacity="0.1" d="M262.237 249.649L262.03 251.763L184.928 244.23L203.219 229.207L228.41 208.488L262.237 249.649Z" fill="black"/>
<path opacity="0.1" d="M220.706 168.573C233.706 168.573 244.244 158.034 244.244 145.034C244.244 132.034 233.706 121.496 220.706 121.496C207.706 121.496 197.167 132.034 197.167 145.034C197.167 158.034 207.706 168.573 220.706 168.573Z" fill="black"/>
<path d="M220.706 168.573C233.706 168.573 244.244 158.034 244.244 145.034C244.244 132.034 233.706 121.496 220.706 121.496C207.706 121.496 197.167 132.034 197.167 145.034C197.167 158.034 207.706 168.573 220.706 168.573Z" fill="#407BFF"/>
<path opacity="0.1" d="M220.706 168.573C233.706 168.573 244.244 158.034 244.244 145.034C244.244 132.034 233.706 121.496 220.706 121.496C207.706 121.496 197.167 132.034 197.167 145.034C197.167 158.034 207.706 168.573 220.706 168.573Z" fill="black"/>
<path d="M208.444 106.896L55.0439 116.924L64.8624 267.127L218.263 257.099L208.444 106.896Z" fill="#407BFF"/>
<path d="M204.814 111.954L59.3002 121.466L68.8048 266.866L214.319 257.354L204.814 111.954Z" fill="white"/>
<path opacity="0.5" d="M208.444 106.896L55.0439 116.924L64.8624 267.127L218.263 257.099L208.444 106.896Z" fill="white"/>
<path d="M218.107 254.996L218.242 257.11L140.94 262.158L156.555 244.373L178.057 219.851L218.107 254.996Z" fill="#407BFF"/>
<path opacity="0.5" d="M218.107 254.996L218.242 257.11L140.94 262.158L156.555 244.373L178.057 219.851L218.107 254.996Z" fill="white"/>
<path d="M64.8418 267.128L63.902 252.696L108.331 202.059L174.34 259.98L64.8418 267.128Z" fill="#407BFF"/>
<path opacity="0.5" d="M64.8418 267.128L63.902 252.696L108.331 202.059L174.34 259.98L64.8418 267.128Z" fill="white"/>
<path d="M160.186 182.016C173.186 182.016 183.724 171.477 183.724 158.477C183.724 145.477 173.186 134.938 160.186 134.938C147.186 134.938 136.647 145.477 136.647 158.477C136.647 171.477 147.186 182.016 160.186 182.016Z" fill="#407BFF"/>
<path opacity="0.5" d="M160.186 182.016C173.186 182.016 183.724 171.477 183.724 158.477C183.724 145.477 173.186 134.938 160.186 134.938C147.186 134.938 136.647 145.477 136.647 158.477C136.647 171.477 147.186 182.016 160.186 182.016Z" fill="white"/>
<path d="M278.129 143.055C278.634 143.988 279.054 144.814 279.467 145.711C279.88 146.608 280.286 147.469 280.678 148.359C281.439 150.139 282.151 151.919 282.814 153.806C283.463 155.675 284.015 157.576 284.465 159.502L284.8 160.969L285.071 162.457C285.17 162.955 285.227 163.468 285.298 163.974L285.398 164.743V165.248C285.412 165.485 285.412 165.723 285.398 165.96C285.342 167.319 285.028 168.656 284.473 169.897C284.043 170.893 283.548 171.858 282.992 172.788C281.955 174.488 280.806 176.118 279.553 177.665C277.143 180.66 274.503 183.462 271.657 186.046L268.752 183.44C270.824 180.449 272.881 177.359 274.732 174.298C275.639 172.808 276.468 171.273 277.217 169.698C277.555 168.99 277.842 168.26 278.079 167.512C278.256 167.031 278.343 166.522 278.335 166.01V165.853L278.2 165.241C278.114 164.828 278.036 164.422 277.915 164.009L277.587 162.77L277.224 161.524C276.705 159.865 276.128 158.206 275.48 156.54C274.832 154.874 274.149 153.244 273.429 151.613C272.71 149.983 271.92 148.317 271.194 146.814L278.129 143.055Z" fill="#EEC1BB"/>
<path d="M286.295 155.508L276.605 160.627L274.269 161.866C274.269 161.866 273.721 160.264 272.945 157.936C272.319 156.078 271.521 153.764 270.766 151.421C270.524 150.709 270.282 149.947 270.054 149.221C269.983 149.014 269.912 148.815 269.848 148.609C267.755 142.201 273.565 139.317 277.516 140.143C284.28 141.56 286.295 155.508 286.295 155.508Z" fill="#407BFF"/>
<path opacity="0.7" d="M286.295 155.508L276.605 160.627L274.269 161.866C274.269 161.866 273.721 160.264 272.945 157.936C272.319 156.078 271.521 153.764 270.766 151.421C270.524 150.709 270.282 149.947 270.054 149.221C269.983 149.014 269.912 148.815 269.848 148.609C267.755 142.201 273.565 139.317 277.516 140.143C284.28 141.56 286.295 155.508 286.295 155.508Z" fill="white"/>
<path d="M276.605 160.627L274.27 161.866C274.27 161.866 273.721 160.264 272.945 157.936C272.319 156.078 271.521 153.764 270.767 151.421C270.524 150.709 270.282 149.947 270.055 149.221L275.395 148.174C275.395 148.174 276.121 156.64 276.605 160.627Z" fill="#407BFF"/>
<path opacity="0.6" d="M276.605 160.627L274.27 161.866C274.27 161.866 273.721 160.264 272.945 157.936C272.319 156.078 271.521 153.764 270.767 151.421C270.524 150.709 270.282 149.947 270.055 149.221L275.395 148.174C275.395 148.174 276.121 156.64 276.605 160.627Z" fill="white"/>
<path d="M269.933 182.628L264.949 184.287L269.471 189.136C269.471 189.136 273.408 186.779 272.397 184.55L269.933 182.628Z" fill="#EEC1BB"/>
<path d="M261.51 188.751L265.426 192.518L269.456 189.136L264.935 184.287L261.51 188.751Z" fill="#EEC1BB"/>
<path d="M234.212 285.32L229.043 284.935L228.559 272.853L233.728 273.237L234.212 285.32Z" fill="#EEC1BB"/>
<path d="M267.285 289.934H262.094L258.05 277.915H263.241L267.285 289.934Z" fill="#EEC1BB"/>
<path d="M228.559 272.86L228.808 279.09L233.985 279.474L233.735 273.244L228.559 272.86Z" fill="#DB9792"/>
<path d="M263.241 277.922H258.05L260.136 284.116H265.327L263.241 277.922Z" fill="#DB9792"/>
<path d="M267.199 282.913H257.694C257.694 282.913 248.438 251.073 246.11 234.59C245.612 231.03 245.904 226.331 246.651 221.233C247.926 212.511 250.503 202.607 252.646 195.216C254.554 188.644 256.128 184.052 256.128 184.052L273.992 185.383C273.024 198.349 260.193 219.638 261.083 237.231C261.902 253.472 267.199 282.913 267.199 282.913Z" fill="#407BFF"/>
<path opacity="0.7" d="M267.199 282.913H257.694C257.694 282.913 248.438 251.073 246.11 234.59C245.612 231.03 245.904 226.331 246.651 221.233C247.926 212.511 250.503 202.607 252.646 195.216C254.554 188.644 256.128 184.052 256.128 184.052L273.992 185.383C273.024 198.349 260.193 219.638 261.083 237.231C261.902 253.472 267.199 282.913 267.199 282.913Z" fill="black"/>
<path d="M269.798 125.469C268.687 129.171 267.256 136.02 269.649 138.797C269.649 138.797 268.225 142.528 261.219 141.83C253.501 141.061 257.915 137.637 257.915 137.637C262.223 137.046 262.429 133.913 261.98 130.901L269.798 125.469Z" fill="#EEC1BB"/>
<path d="M256.64 119.865C256.598 120.278 256.341 120.577 256.071 120.577C255.8 120.577 255.615 120.193 255.651 119.773C255.686 119.353 255.95 119.061 256.22 119.061C256.491 119.061 256.683 119.445 256.64 119.865Z" fill="#263238"/>
<path d="M256.626 120.072C256.006 121.296 255.218 122.427 254.284 123.432C254.547 123.665 254.858 123.837 255.195 123.937C255.532 124.037 255.887 124.061 256.235 124.009L256.626 120.072Z" fill="#D4827D"/>
<path d="M258.235 118.491C258.192 118.492 258.15 118.481 258.112 118.46C258.074 118.438 258.043 118.407 258.022 118.37C257.869 118.103 257.655 117.877 257.397 117.708C257.14 117.54 256.846 117.435 256.541 117.402C256.475 117.398 256.414 117.369 256.369 117.322C256.324 117.274 256.299 117.211 256.299 117.145C256.297 117.115 256.301 117.085 256.311 117.057C256.321 117.028 256.337 117.002 256.358 116.98C256.379 116.958 256.404 116.94 256.432 116.928C256.459 116.916 256.489 116.91 256.519 116.91H256.555C256.943 116.944 257.317 117.071 257.646 117.281C257.974 117.49 258.247 117.776 258.442 118.114C258.476 118.169 258.488 118.237 258.473 118.301C258.458 118.365 258.419 118.42 258.363 118.455C258.324 118.477 258.28 118.489 258.235 118.491Z" fill="#263238"/>
<path d="M261.404 289.328H267.712C267.815 289.328 267.916 289.363 267.996 289.428C268.076 289.493 268.132 289.583 268.153 289.684L269.179 294.298C269.2 294.396 269.201 294.498 269.182 294.596C269.164 294.695 269.126 294.789 269.071 294.873C269.016 294.957 268.945 295.029 268.862 295.086C268.779 295.142 268.686 295.182 268.588 295.202H268.417C266.388 295.167 264.9 295.053 262.336 295.053C260.763 295.053 257.509 295.217 255.33 295.217C253.152 295.217 252.874 293.081 253.764 292.867C257.758 291.991 259.268 290.788 260.542 289.634C260.783 289.432 261.089 289.323 261.404 289.328Z" fill="#263238"/>
<path d="M228.794 283.775L234.447 284.195C234.55 284.205 234.646 284.249 234.721 284.32C234.796 284.391 234.845 284.484 234.86 284.586L235.537 289.257C235.553 289.355 235.55 289.455 235.527 289.551C235.504 289.648 235.462 289.739 235.404 289.819C235.345 289.899 235.272 289.967 235.187 290.018C235.102 290.07 235.008 290.104 234.91 290.119C234.849 290.126 234.787 290.126 234.725 290.119C232.689 289.926 229.741 289.592 227.192 289.407C224.195 289.186 222.208 289.079 218.691 288.816C216.555 288.659 216.142 286.466 217.039 286.338C221.154 285.754 223.86 285.982 227.52 284.088C227.907 283.868 228.348 283.759 228.794 283.775Z" fill="#263238"/>
<path d="M246.623 142.215C246.153 143.019 245.59 143.938 245.07 144.807C244.551 145.675 243.981 146.558 243.419 147.42C242.301 149.15 241.14 150.844 239.937 152.482C238.734 154.12 237.48 155.7 236.163 157.174C235.03 158.457 233.797 159.647 232.475 160.734C231.377 160.988 230.26 161.15 229.136 161.218C227.707 161.29 226.274 161.204 224.864 160.962C222.661 160.576 220.526 159.871 218.527 158.869C218.192 158.698 217.865 158.513 217.544 158.327L216.647 157.793L213.935 160.584C214.319 161.026 214.611 161.296 214.96 161.667C215.292 161.994 215.642 162.302 216.007 162.592C216.719 163.192 217.468 163.746 218.249 164.251C219.842 165.27 221.554 166.088 223.347 166.686C225.178 167.292 227.077 167.668 229.001 167.804C230.939 167.924 232.885 167.812 234.796 167.47L235.387 167.363L236.064 166.921C238.055 165.592 239.902 164.057 241.574 162.343C243.187 160.725 244.699 159.011 246.103 157.21C247.527 155.444 248.794 153.614 250.026 151.756C250.638 150.809 251.229 149.855 251.806 148.908C252.383 147.961 252.931 147.014 253.5 145.946L246.623 142.215Z" fill="#EEC1BB"/>
<path d="M219.004 159.488L215.131 156.099L212.176 161.211C212.176 161.211 214.931 164.301 218.171 162.357L219.004 159.488Z" fill="#EEC1BB"/>
<path d="M209.741 153.877L207.683 158.555L212.148 161.211L215.131 156.127L209.741 153.877Z" fill="#EEC1BB"/>
<path d="M270.816 119.83C269.99 124.913 269.77 127.925 266.929 130.296C262.657 133.856 256.569 130.887 255.857 125.661C255.216 120.962 256.669 113.436 261.874 111.898C263.021 111.554 264.237 111.509 265.406 111.767C266.575 112.025 267.659 112.577 268.555 113.372C269.451 114.166 270.129 115.177 270.525 116.307C270.921 117.437 271.021 118.65 270.816 119.83Z" fill="#EEC1BB"/>
<path d="M276.569 117.152C280.371 119.815 271.322 129.584 268.104 129.477C264.885 129.37 258.848 120.449 260.827 115.7C259.168 115.031 258.634 114.81 257.979 113.115C256.754 110.047 258.228 104.927 265.747 106.366C263.881 107.633 265.177 108.637 268.716 108.146C267.292 109.805 269.627 111.029 273.066 110.317C272.461 113.365 280.129 113.799 276.569 117.152Z" fill="#263238"/>
<path d="M263.661 121.403C263.42 122.674 262.688 123.8 261.624 124.536C260.2 125.497 258.947 124.358 258.89 122.727C258.841 121.268 259.517 119.004 261.162 118.698C261.737 118.601 262.327 118.736 262.802 119.074C263.277 119.411 263.599 119.924 263.696 120.499C263.745 120.8 263.733 121.107 263.661 121.403Z" fill="#EEC1BB"/>
<path opacity="0.4" d="M257.374 198.961C257.274 207.591 251.208 217.124 246.651 221.233C247.926 212.511 250.503 202.607 252.646 195.216C253.978 194.946 256.263 197.473 257.374 198.961Z" fill="black"/>
<path d="M259.688 290.24C259.334 290.267 258.982 290.171 258.691 289.969C258.596 289.892 258.523 289.792 258.478 289.679C258.433 289.565 258.418 289.442 258.435 289.321C258.435 289.25 258.454 289.18 258.49 289.119C258.527 289.057 258.579 289.007 258.641 288.972C259.225 288.687 260.891 289.684 261.083 289.827C261.102 289.841 261.116 289.859 261.125 289.88C261.134 289.902 261.137 289.925 261.133 289.948C261.131 289.972 261.12 289.995 261.103 290.013C261.087 290.031 261.065 290.043 261.041 290.047C260.6 290.168 260.145 290.233 259.688 290.24ZM258.919 289.165C258.865 289.15 258.809 289.15 258.755 289.165C258.731 289.179 258.711 289.2 258.697 289.225C258.683 289.25 258.676 289.278 258.677 289.307C258.666 289.39 258.677 289.474 258.706 289.552C258.736 289.631 258.785 289.7 258.848 289.755C259.426 290.02 260.083 290.053 260.685 289.848C260.146 289.502 259.547 289.26 258.919 289.136V289.165Z" fill="#407BFF"/>
<path d="M261.012 290.055H260.955C260.421 289.763 259.382 288.631 259.488 288.047C259.507 287.956 259.556 287.875 259.627 287.816C259.698 287.758 259.788 287.726 259.88 287.726C259.974 287.712 260.07 287.718 260.161 287.745C260.252 287.772 260.336 287.819 260.407 287.883C261.005 288.374 261.119 289.869 261.119 289.934C261.118 289.956 261.113 289.977 261.103 289.997C261.093 290.017 261.079 290.034 261.062 290.047L261.012 290.055ZM259.965 287.919H259.916C259.752 287.919 259.738 288.011 259.731 288.04C259.666 288.381 260.329 289.243 260.863 289.649C260.823 289.059 260.61 288.494 260.25 288.025C260.169 287.964 260.067 287.936 259.965 287.947V287.919Z" fill="#407BFF"/>
<path d="M227.021 284.537C226.428 284.601 225.831 284.449 225.341 284.109C225.264 284.029 225.208 283.931 225.176 283.825C225.144 283.719 225.137 283.606 225.156 283.497C225.163 283.429 225.187 283.365 225.227 283.31C225.267 283.255 225.321 283.211 225.384 283.184C226.039 282.885 228.039 284.088 228.267 284.23C228.288 284.244 228.305 284.263 228.315 284.286C228.325 284.309 228.328 284.334 228.324 284.359C228.318 284.384 228.304 284.406 228.285 284.424C228.266 284.442 228.243 284.454 228.217 284.458C227.821 284.509 227.421 284.535 227.021 284.537ZM225.654 283.376C225.598 283.377 225.542 283.389 225.49 283.412C225.466 283.422 225.444 283.438 225.428 283.459C225.411 283.481 225.401 283.506 225.398 283.533C225.383 283.605 225.386 283.68 225.407 283.751C225.429 283.822 225.467 283.886 225.519 283.938C225.818 284.245 226.665 284.359 227.819 284.252C227.16 283.825 226.425 283.527 225.654 283.376Z" fill="#407BFF"/>
<path d="M228.203 284.458H228.139C227.541 284.131 226.387 282.92 226.523 282.322C226.558 282.187 226.665 282.023 227.007 282.009C227.254 282.007 227.491 282.102 227.669 282.272C228.094 282.872 228.323 283.588 228.324 284.323C228.324 284.344 228.319 284.365 228.309 284.383C228.299 284.402 228.285 284.418 228.267 284.43L228.203 284.458ZM227.035 282.265C226.808 282.265 226.793 282.358 226.786 282.386C226.701 282.728 227.498 283.675 228.082 284.102C228.071 283.509 227.874 282.934 227.52 282.458C227.456 282.394 227.381 282.344 227.297 282.311C227.214 282.278 227.125 282.263 227.035 282.265Z" fill="#407BFF"/>
<path d="M246.352 183.326C246.352 183.326 223.938 217.231 223.326 233.052C222.692 249.506 226.993 277.744 226.993 277.744L235.757 278.399C235.757 278.399 236.776 251.542 238.363 235.451C240.094 217.915 265.419 198.37 266.416 184.821L246.352 183.326Z" fill="#407BFF"/>
<path opacity="0.7" d="M246.352 183.326C246.352 183.326 223.938 217.231 223.326 233.052C222.692 249.506 226.993 277.744 226.993 277.744L235.757 278.399C235.757 278.399 236.776 251.542 238.363 235.451C240.094 217.915 265.419 198.37 266.416 184.821L246.352 183.326Z" fill="black"/>
<path d="M256.014 283.12H268.438V279.773L254.554 279.56L256.014 283.12Z" fill="#407BFF"/>
<path d="M225.198 277.794L237.367 278.727L237.623 275.352L224.002 274.134L225.198 277.794Z" fill="#407BFF"/>
<path d="M256.014 144.6C255.644 149.541 249.791 159.175 249.791 159.175L236.541 152.211C236.541 152.211 241.026 144.999 245.932 140.705C250.838 136.412 256.42 139.168 256.014 144.6Z" fill="#407BFF"/>
<path opacity="0.7" d="M256.014 144.6C255.644 149.541 249.791 159.175 249.791 159.175L236.541 152.211C236.541 152.211 241.026 144.999 245.932 140.705C250.838 136.412 256.42 139.168 256.014 144.6Z" fill="white"/>
<path d="M256.413 138.94C256.769 138.228 256.256 135.693 256.256 135.693C256.256 135.693 267.271 134.212 271.208 135.615C273.344 136.369 271.464 140.179 271.464 140.179L256.413 138.94Z" fill="#407BFF"/>
<path opacity="0.7" d="M256.413 138.94C256.769 138.228 256.256 135.693 256.256 135.693C256.256 135.693 267.271 134.212 271.208 135.615C273.344 136.369 271.464 140.179 271.464 140.179L256.413 138.94Z" fill="black"/>
<path d="M273.985 185.383L246.352 183.326C245.449 176.368 245.133 169.347 245.405 162.336C245.519 159.816 245.718 157.494 245.96 155.373C247.242 144.273 249.948 138.634 249.948 138.634C252.608 138.142 255.303 137.858 258.007 137.786C261.942 137.85 265.869 138.142 269.77 138.662C272.597 139.024 275.397 139.575 278.15 140.314C272.561 160.022 274.49 181.147 273.985 185.383Z" fill="#407BFF"/>
<path opacity="0.7" d="M273.985 185.383L246.352 183.326C245.449 176.368 245.133 169.347 245.405 162.336C245.519 159.816 245.718 157.494 245.96 155.373C247.242 144.273 249.948 138.634 249.948 138.634C252.608 138.142 255.303 137.858 258.007 137.786C261.942 137.85 265.869 138.142 269.77 138.662C272.597 139.024 275.397 139.575 278.15 140.314C272.561 160.022 274.49 181.147 273.985 185.383Z" fill="white"/>
</svg>
