<svg width="751" height="751" viewBox="0 0 751 751" fill="none" xmlns="http://www.w3.org/2000/svg">
<path d="M637.644 406.501C635.602 407.598 633.44 408.455 631.2 409.055C629.044 409.915 626.797 410.525 624.502 410.872C626.544 409.775 628.706 408.918 630.945 408.319C633.104 407.467 635.351 406.857 637.644 406.501Z" fill="#E0E0E0"/>
<path d="M470.547 646.085V700.668H477.846L487.654 645.485L470.547 646.085Z" fill="#E0E0E0"/>
<path d="M536.98 646.085V700.668H544.295L554.103 645.485L536.98 646.085Z" fill="#E0E0E0"/>
<path d="M620.056 646.085V700.668H612.756L602.948 645.485L620.056 646.085Z" fill="#E0E0E0"/>
<path d="M666.738 646.085V700.668H659.423L649.615 645.485L666.738 646.085Z" fill="#E0E0E0"/>
<path d="M516.192 526.03C516.192 526.03 487.324 517.694 479.348 528.794C471.373 539.894 470.547 646.851 470.547 646.851C470.547 646.851 522.08 647.783 523.026 646.851C523.973 645.92 516.192 526.03 516.192 526.03Z" fill="#E0E0E0"/>
<path d="M665.266 627.34L666.528 441.903C666.565 436.217 665.474 430.58 663.318 425.319C661.161 420.057 657.981 415.276 653.963 411.253C649.945 407.229 645.169 404.043 639.91 401.879C634.652 399.715 629.016 398.616 623.33 398.646H555.289C549.635 398.646 544.037 399.777 538.826 401.972C533.615 404.168 528.895 407.383 524.945 411.428C520.994 415.474 517.892 420.269 515.822 425.531C513.751 430.793 512.754 436.416 512.888 442.069L517.259 627.34H665.266Z" fill="#EBEBEB"/>
<path d="M665.266 627.34C665.266 627.34 639.026 588.634 608.19 587.357C577.354 586.08 510.875 587.357 510.875 587.357C510.875 587.357 481.406 588.484 479.333 624.982V646.506H665.266V627.34Z" fill="#EBEBEB"/>
<path d="M604.93 588.469L528.614 588.078C520.638 588.078 511.581 587.057 503.861 589.25C481.106 595.693 477.771 624.787 479.574 644.824C479.574 645.635 478.372 645.635 478.297 644.824C476.795 627.986 478.552 604.42 492.941 593.215C501.247 586.756 510.89 586.651 520.803 586.696L604.915 587.147C605.068 587.17 605.207 587.248 605.307 587.365C605.408 587.482 605.463 587.631 605.463 587.785C605.463 587.939 605.408 588.089 605.307 588.206C605.207 588.323 605.068 588.4 604.915 588.424L604.93 588.469Z" fill="#E0E0E0"/>
<path d="M533.886 404.443L534.382 404.263C534.697 404.173 535.193 403.993 535.884 403.843C536.574 403.693 537.386 403.572 538.332 403.422C539.278 403.272 540.42 403.167 541.696 403.062C546.758 402.626 554.103 402.356 563.19 402.296C567.696 402.296 572.713 402.296 578.045 402.296C583.737 402.241 589.429 402.502 595.092 403.077C598.161 403.441 601.206 403.987 604.21 404.714C607.363 405.442 610.422 406.53 613.327 407.958C619.327 411.284 624.267 416.235 627.581 422.242C628.387 423.796 629.021 425.433 629.473 427.124C629.856 428.8 630.117 430.502 630.254 432.215C630.66 435.565 630.975 438.869 631.306 442.129C631.936 448.632 632.387 454.926 632.808 460.919C633.559 472.935 633.889 483.719 634.114 492.791C634.34 501.863 634.4 509.223 634.445 514.3C634.445 516.793 634.445 518.806 634.445 520.143C634.445 520.773 634.445 521.284 634.445 521.645C634.468 521.819 634.468 521.996 634.445 522.17C634.426 521.996 634.426 521.819 634.445 521.645C634.445 521.269 634.445 520.758 634.445 520.143C634.445 518.761 634.34 516.793 634.265 514.3C634.114 509.178 633.919 501.848 633.679 492.806C633.438 483.764 633.003 472.935 632.177 460.964C631.786 454.956 631.306 448.692 630.675 442.204C630.344 438.959 630.014 435.655 629.623 432.306C629.484 430.628 629.228 428.961 628.857 427.319C628.411 425.686 627.792 424.105 627.01 422.603C625.429 419.624 623.403 416.904 621.002 414.537C618.685 412.204 616.044 410.216 613.161 408.634C610.314 407.232 607.315 406.159 604.225 405.435C601.255 404.709 598.246 404.157 595.213 403.783C589.574 403.202 583.908 402.921 578.24 402.941C572.908 402.851 567.936 402.791 563.4 402.791C554.388 402.791 546.983 402.957 541.922 403.302L538.572 403.602L536.124 403.948C535.478 404.053 534.997 404.218 534.622 404.293C534.388 404.388 534.138 404.439 533.886 404.443Z" fill="#E0E0E0"/>
<path d="M642.721 453.213C641.107 454.184 639.369 454.932 637.554 455.436C635.83 456.187 634.01 456.692 632.147 456.938C633.755 455.966 635.488 455.218 637.299 454.715C639.027 453.964 640.852 453.459 642.721 453.213Z" fill="#E0E0E0"/>
<path d="M636.983 463.863C636.983 464.073 635.872 464.208 634.55 464.148C633.228 464.088 632.132 463.863 632.147 463.652C632.162 463.442 633.243 463.307 634.58 463.367C635.917 463.427 636.983 463.652 636.983 463.863Z" fill="#E0E0E0"/>
<path d="M593.29 460.318C593.29 460.318 593.5 460.123 593.996 460.078C594.713 460.066 595.411 460.311 595.964 460.769C596.402 461.119 596.729 461.59 596.902 462.124C597.076 462.658 597.089 463.231 596.94 463.773C596.758 464.427 596.382 465.011 595.862 465.448C595.342 465.885 594.702 466.155 594.026 466.221C593.351 466.24 592.686 466.06 592.112 465.705C591.538 465.35 591.081 464.835 590.797 464.223C590.567 463.73 590.468 463.187 590.51 462.644C590.552 462.102 590.734 461.58 591.037 461.129C591.404 460.528 591.958 460.063 592.614 459.807C593.08 459.642 593.35 459.657 593.365 459.702C592.598 460.089 591.953 460.682 591.503 461.414C591.298 461.798 591.19 462.226 591.19 462.661C591.19 463.096 591.298 463.524 591.503 463.908C591.745 464.369 592.111 464.753 592.559 465.019C593.007 465.284 593.52 465.419 594.041 465.41C594.559 465.352 595.049 465.144 595.45 464.81C595.85 464.476 596.144 464.032 596.294 463.532C596.422 463.123 596.43 462.686 596.315 462.273C596.2 461.86 595.969 461.489 595.648 461.204C595.005 460.617 594.161 460.3 593.29 460.318Z" fill="#E0E0E0"/>
<path d="M595.813 443.09C595.888 443.18 595.002 443.856 593.921 445.223C592.503 446.965 591.534 449.028 591.097 451.231C590.714 453.46 590.879 455.749 591.578 457.9C592.118 459.567 592.704 460.498 592.599 460.573C591.912 459.876 591.398 459.027 591.097 458.095C590.198 455.872 589.943 453.441 590.361 451.081C590.8 448.729 591.9 446.552 593.53 444.802C594.137 444.05 594.922 443.462 595.813 443.09Z" fill="#E0E0E0"/>
<path d="M594.131 484.365C593.32 483.665 592.661 482.806 592.194 481.842C590.902 479.581 590.104 477.073 589.85 474.482C589.713 473.061 589.743 471.63 589.941 470.216C590.079 469.014 590.541 467.872 591.277 466.912C591.801 466.286 592.503 465.836 593.29 465.62C593.861 465.485 594.176 465.62 594.176 465.62C593.201 465.903 592.342 466.493 591.728 467.302C590.601 468.804 590.391 471.568 590.646 474.452C590.905 476.941 591.596 479.365 592.689 481.616C593.515 483.314 594.236 484.29 594.131 484.365Z" fill="#E0E0E0"/>
<path d="M583.587 462.616C583.422 462.481 584.744 461.279 586.801 461.279C588.859 461.279 590.181 462.451 590.016 462.601C588.955 462.366 587.882 462.191 586.801 462.075C585.721 462.2 584.648 462.38 583.587 462.616Z" fill="#E0E0E0"/>
<path d="M550.002 460.318C550.002 460.318 550.228 460.123 550.723 460.078C551.441 460.066 552.139 460.311 552.691 460.769C553.127 461.121 553.451 461.593 553.621 462.127C553.792 462.66 553.803 463.233 553.652 463.773C553.475 464.427 553.103 465.012 552.585 465.449C552.067 465.887 551.428 466.156 550.753 466.221C550.079 466.24 549.414 466.06 548.84 465.705C548.266 465.35 547.808 464.835 547.524 464.223C547.296 463.731 547.197 463.188 547.237 462.647C547.276 462.106 547.452 461.583 547.749 461.129C548.125 460.529 548.683 460.066 549.341 459.807C549.807 459.642 550.077 459.657 550.092 459.702C549.325 460.089 548.68 460.682 548.23 461.414C548.025 461.798 547.918 462.226 547.918 462.661C547.918 463.096 548.025 463.524 548.23 463.908C548.472 464.369 548.838 464.753 549.286 465.019C549.734 465.284 550.248 465.419 550.768 465.41C551.286 465.35 551.775 465.141 552.175 464.807C552.576 464.474 552.87 464.031 553.021 463.532C553.15 463.123 553.157 462.686 553.042 462.273C552.928 461.86 552.696 461.489 552.376 461.204C551.727 460.616 550.878 460.299 550.002 460.318Z" fill="#E0E0E0"/>
<path d="M552.511 443.09C552.511 443.18 551.7 443.856 550.603 445.223C549.168 446.975 548.201 449.063 547.794 451.291C547.387 453.519 547.552 455.813 548.275 457.96C548.816 459.627 549.402 460.558 549.296 460.633C548.603 459.94 548.088 459.09 547.794 458.155C546.881 455.94 546.625 453.508 547.057 451.151C547.488 448.794 548.589 446.611 550.228 444.862C550.827 444.088 551.612 443.479 552.511 443.09Z" fill="#E0E0E0"/>
<path d="M550.828 484.365C550.017 483.665 549.358 482.806 548.891 481.842C546.873 478.323 546.08 474.234 546.638 470.216C546.776 469.014 547.238 467.872 547.975 466.912C548.485 466.272 549.184 465.809 549.972 465.59C550.528 465.455 550.859 465.59 550.859 465.59C549.881 465.869 549.022 466.46 548.41 467.272C547.284 468.774 547.073 471.538 547.329 474.422C547.58 476.912 548.271 479.338 549.372 481.586C550.213 483.314 550.934 484.29 550.828 484.365Z" fill="#E0E0E0"/>
<path d="M540.284 462.616C540.119 462.481 541.441 461.279 543.499 461.279C545.556 461.279 546.878 462.451 546.713 462.601C545.652 462.366 544.579 462.191 543.499 462.075C542.418 462.198 541.345 462.379 540.284 462.616Z" fill="#E0E0E0"/>
<path d="M664.485 524.784C664.485 524.784 620.326 513.369 612.335 528.389C604.345 543.409 602.948 646.956 602.948 646.956C602.948 646.956 666.708 649.315 666.858 646.626C667.008 643.937 664.485 524.784 664.485 524.784Z" fill="#F5F5F5"/>
<path d="M666.888 524.303C666.888 524.303 637.734 516.793 629.774 527.893C621.813 538.993 619.71 647.482 619.71 647.482C619.71 647.482 666.272 648.849 667.188 647.918C668.105 646.987 666.888 524.303 666.888 524.303Z" fill="#EBEBEB"/>
<path d="M649.78 578.36C649.78 578.36 649.885 578.09 650.336 578.03C650.654 578.007 650.972 578.087 651.242 578.257C651.512 578.427 651.721 578.679 651.838 578.976C652.165 579.759 652.263 580.618 652.123 581.454C652.065 582.021 651.816 582.55 651.417 582.956C651.185 583.158 650.911 583.304 650.614 583.385C650.318 583.465 650.007 583.478 649.705 583.422C649.298 583.355 648.916 583.18 648.599 582.916C648.282 582.652 648.042 582.308 647.903 581.92C647.664 581.26 647.664 580.537 647.903 579.877C648.269 578.996 648.941 578.276 649.795 577.849V578.165C649.315 577.94 649.059 577.804 649.089 577.744C649.119 577.684 649.39 577.744 649.915 577.819L650.231 577.895L649.961 578.135C649.286 578.638 648.766 579.319 648.459 580.102C648.353 580.353 648.302 580.624 648.309 580.896C648.317 581.169 648.382 581.436 648.502 581.681C648.621 581.926 648.792 582.142 649.002 582.315C649.212 582.489 649.457 582.615 649.72 582.686C649.907 582.718 650.099 582.71 650.282 582.663C650.466 582.617 650.638 582.532 650.787 582.414C650.935 582.296 651.058 582.149 651.146 581.981C651.234 581.813 651.285 581.628 651.297 581.439C651.435 580.727 651.41 579.992 651.222 579.291C651.156 579.076 651.031 578.883 650.861 578.735C650.691 578.586 650.483 578.488 650.261 578.45C650.006 578.27 649.825 578.405 649.78 578.36Z" fill="#E0E0E0"/>
<path d="M641.489 558.744C642.223 559.526 642.845 560.405 643.337 561.357C644.673 563.573 645.857 565.876 646.881 568.252C647.915 570.624 648.788 573.063 649.495 575.551C649.857 576.563 650.079 577.619 650.156 578.691C649.915 578.691 648.564 574.064 646.16 568.567C643.757 563.07 641.354 558.744 641.489 558.744Z" fill="#E0E0E0"/>
<path d="M658.897 560.501C659.093 560.606 657.11 564.647 654.932 569.724C652.754 574.8 651.147 578.991 650.937 578.916C652.636 572.408 655.32 566.198 658.897 560.501Z" fill="#E0E0E0"/>
<path d="M641.684 613.657C641.71 612.098 641.881 610.544 642.195 609.016C642.631 606.162 643.352 602.257 644.313 597.961C645.274 593.665 646.311 589.835 647.137 587.072C647.497 585.561 648 584.087 648.639 582.671C648.424 584.196 648.093 585.703 647.647 587.177C646.956 589.971 646.01 593.816 645.049 598.096C644.088 602.377 643.277 606.252 642.706 609.061C642.483 610.617 642.141 612.153 641.684 613.657Z" fill="#E0E0E0"/>
<path d="M658.852 601.776C658.627 601.776 657.35 597.406 655.232 592.179C653.115 586.952 650.907 582.881 651.102 582.776C651.794 583.522 652.361 584.374 652.784 585.299C653.98 587.423 655.038 589.62 655.953 591.878C656.877 594.131 657.659 596.438 658.297 598.787C658.636 599.749 658.823 600.757 658.852 601.776Z" fill="#E0E0E0"/>
<path d="M145.276 351.664L144.442 409.935L217.326 410.979L218.16 352.707L145.276 351.664Z" fill="#EBEBEB"/>
<path d="M147.731 355.38L147.002 406.307L214.765 407.277L215.494 356.35L147.731 355.38Z" fill="#F5F5F5"/>
<path d="M147.016 406.306L171.123 374.974L185.497 394.996L195.605 384.542L214.771 407.267L147.016 406.306Z" fill="#EBEBEB"/>
<path d="M192.061 371.4C192.046 372.454 191.718 373.48 191.12 374.349C190.522 375.217 189.68 375.889 188.7 376.278C187.72 376.668 186.647 376.759 185.615 376.538C184.584 376.318 183.641 375.797 182.906 375.041C182.171 374.285 181.677 373.328 181.485 372.291C181.294 371.253 181.415 370.183 181.832 369.214C182.249 368.246 182.944 367.423 183.829 366.849C184.714 366.276 185.749 365.978 186.804 365.992C187.505 366 188.197 366.146 188.841 366.423C189.485 366.699 190.068 367.1 190.557 367.603C191.045 368.105 191.43 368.699 191.688 369.351C191.946 370.003 192.073 370.699 192.061 371.4Z" fill="#EBEBEB"/>
<path d="M76.0011 63.768L74.927 138.815L168.792 140.159L169.867 65.1115L76.0011 63.768Z" fill="#EBEBEB"/>
<path d="M79.1613 68.5609L78.2226 134.147L165.495 135.396L166.434 69.81L79.1613 68.5609Z" fill="#F5F5F5"/>
<path d="M78.2241 134.144L109.285 93.8149L127.79 119.589L140.797 106.146L165.49 135.39L78.2241 134.144Z" fill="#EBEBEB"/>
<path d="M136.246 89.2038C136.228 90.5648 135.807 91.8899 135.036 93.0114C134.264 94.1329 133.178 95.0003 131.913 95.5039C130.648 96.0075 129.263 96.1246 127.932 95.8405C126.601 95.5563 125.384 94.8836 124.435 93.9076C123.486 92.9315 122.848 91.696 122.602 90.3573C122.356 89.0186 122.512 87.6369 123.052 86.3872C123.591 85.1374 124.489 84.0758 125.632 83.3366C126.775 82.5973 128.111 82.2138 129.472 82.2345C130.375 82.2462 131.267 82.4359 132.096 82.7928C132.925 83.1496 133.676 83.6664 134.305 84.3138C134.934 84.9612 135.43 85.7263 135.763 86.5654C136.096 87.4045 136.26 88.3011 136.246 89.2038Z" fill="#EBEBEB"/>
<path d="M553.831 84.5906L552.653 166.937L655.649 168.411L656.828 86.0647L553.831 84.5906Z" fill="#EBEBEB"/>
<path d="M557.3 89.8237L556.27 161.807L652.028 163.178L653.058 91.1943L557.3 89.8237Z" fill="#F5F5F5"/>
<path d="M556.266 161.81L590.346 117.547L610.668 145.829L624.937 131.065L652.018 163.177L556.266 161.81Z" fill="#EBEBEB"/>
<path d="M619.935 112.485C619.909 113.967 619.444 115.409 618.599 116.627C617.755 117.846 616.568 118.787 615.189 119.333C613.811 119.878 612.301 120.003 610.851 119.692C609.402 119.381 608.077 118.648 607.043 117.585C606.009 116.522 605.313 115.177 605.043 113.719C604.772 112.261 604.939 110.756 605.523 109.393C606.107 108.03 607.081 106.87 608.322 106.06C609.564 105.25 611.018 104.825 612.501 104.84C613.492 104.849 614.472 105.055 615.383 105.446C616.294 105.836 617.119 106.403 617.811 107.113C618.502 107.824 619.045 108.665 619.41 109.587C619.775 110.509 619.953 111.494 619.935 112.485Z" fill="#EBEBEB"/>
<path d="M384.283 401.819L383.151 480.907L482.077 482.323L483.209 403.235L384.283 401.819Z" fill="#EBEBEB"/>
<path d="M387.62 406.84L386.63 475.97L478.603 477.287L479.593 408.157L387.62 406.84Z" fill="#F5F5F5"/>
<path d="M386.615 475.954L419.358 433.447L438.869 460.618L452.568 446.439L478.582 477.276L386.615 475.954Z" fill="#EBEBEB"/>
<path d="M447.776 428.596C447.755 430.027 447.31 431.421 446.498 432.599C445.685 433.778 444.541 434.689 443.21 435.218C441.879 435.747 440.422 435.869 439.022 435.569C437.622 435.269 436.342 434.561 435.344 433.534C434.347 432.507 433.676 431.207 433.417 429.799C433.158 428.391 433.323 426.938 433.89 425.623C434.457 424.308 435.401 423.191 436.603 422.413C437.804 421.635 439.21 421.23 440.642 421.251C441.592 421.265 442.531 421.465 443.404 421.842C444.277 422.219 445.068 422.763 445.73 423.445C446.393 424.128 446.915 424.933 447.266 425.817C447.617 426.701 447.79 427.645 447.776 428.596Z" fill="#EBEBEB"/>
<path d="M696.357 700.668C696.357 700.908 552.691 701.089 375.515 701.089C198.339 701.089 54.6428 700.908 54.6428 700.668C54.6428 700.428 198.279 700.262 375.515 700.262C552.751 700.262 696.357 700.443 696.357 700.668Z" fill="#263238"/>
<path d="M502.087 206.16L500.679 304.546L623.74 306.307L625.148 207.921L502.087 206.16Z" fill="#EBEBEB"/>
<path d="M625.132 207.907H622.804H616.12L590.917 207.636L502.059 206.54L502.419 206.21C502.013 235.484 501.548 269.053 501.052 304.576L500.662 304.17L623.736 306.002L623.405 306.318C623.901 276.698 624.306 252.156 624.592 234.973C624.742 226.381 624.877 219.652 624.952 215.026C624.952 212.743 625.042 210.986 625.072 209.769C625.102 208.553 625.072 207.937 625.072 207.937C625.072 207.937 625.072 208.523 625.072 209.694C625.072 210.866 625.072 212.698 625.072 214.906C625.072 219.502 624.967 226.216 624.877 234.778C624.667 252.006 624.381 276.623 624.021 306.333V306.663H623.69L500.662 304.906H500.271V304.515C500.797 268.993 501.293 235.423 501.773 206.15V205.774H502.119L591.187 207.276L616.316 207.727L622.924 207.862H624.622L625.132 207.907Z" fill="#263238"/>
<path d="M506.247 212.409L505.016 298.405L619.442 300.043L620.673 214.047L506.247 212.409Z" fill="#407BFF"/>
<path d="M504.987 298.402L545.722 245.517L569.994 279.312L587.042 261.678L619.41 300.04L504.987 298.402Z" fill="#407BFF"/>
<path d="M581.079 239.479C581.052 241.261 580.497 242.995 579.485 244.462C578.472 245.929 577.048 247.062 575.391 247.72C573.734 248.377 571.92 248.528 570.177 248.154C568.434 247.78 566.842 246.898 565.601 245.619C564.359 244.34 563.525 242.721 563.204 240.968C562.882 239.215 563.088 237.406 563.794 235.77C564.501 234.134 565.677 232.744 567.173 231.776C568.67 230.808 570.42 230.305 572.202 230.332C573.385 230.349 574.554 230.6 575.641 231.069C576.727 231.538 577.711 232.217 578.535 233.067C579.359 233.916 580.008 234.919 580.445 236.02C580.881 237.12 581.097 238.295 581.079 239.479Z" fill="#407BFF"/>
<path opacity="0.2" d="M504.987 298.402L545.722 245.517L569.994 279.312L587.042 261.678L619.41 300.04L504.987 298.402Z" fill="black"/>
<g opacity="0.2">
<path opacity="0.2" d="M581.079 239.479C581.052 241.261 580.497 242.995 579.485 244.462C578.472 245.929 577.048 247.062 575.391 247.72C573.734 248.377 571.92 248.528 570.177 248.154C568.434 247.78 566.842 246.898 565.601 245.619C564.359 244.34 563.525 242.721 563.204 240.968C562.882 239.215 563.088 237.406 563.794 235.77C564.501 234.134 565.677 232.744 567.173 231.776C568.67 230.808 570.42 230.305 572.202 230.332C573.385 230.349 574.554 230.6 575.641 231.069C576.727 231.538 577.711 232.217 578.535 233.067C579.359 233.916 580.008 234.919 580.445 236.02C580.881 237.12 581.097 238.295 581.079 239.479Z" fill="black"/>
</g>
<path d="M266.812 62.4106L265.134 179.675L411.804 181.774L413.483 64.5099L266.812 62.4106Z" fill="#EBEBEB"/>
<path d="M413.456 64.586H410.692L402.731 64.5109L372.691 64.1805L266.77 62.8437L267.131 62.4982C266.635 97.3897 266.079 137.403 265.494 179.744L265.103 179.339L411.773 181.502L411.443 181.832C412.014 146.505 412.494 117.246 412.825 96.7739C413.005 86.5302 413.155 78.5096 413.26 73.0122C413.26 70.2786 413.35 68.1758 413.38 66.7489C413.41 65.322 413.38 64.571 413.38 64.571C413.38 64.571 413.38 65.2769 413.38 66.6738V72.8771C413.38 78.3594 413.245 86.3951 413.125 96.5786C412.885 117.096 412.524 146.43 412.089 181.832V182.163H411.773L265.103 180.135H264.712V179.744C265.328 137.403 265.914 97.4047 266.425 62.4982V62.1528H266.785L372.917 63.85L402.866 64.3607L410.767 64.5259H412.78L413.456 64.586Z" fill="#263238"/>
<path d="M271.02 69.8581L269.553 172.359L405.921 174.311L407.388 71.8099L271.02 69.8581Z" fill="#407BFF"/>
<path opacity="0.3" d="M271.02 69.8581L269.553 172.359L405.921 174.311L407.388 71.8099L271.02 69.8581Z" fill="white"/>
<path d="M270.285 172.37L318.815 109.331L347.758 149.614L368.065 128.586L406.651 174.307L270.285 172.37Z" fill="#407BFF"/>
<path d="M351.67 112.646C357.547 111.844 361.661 106.43 360.859 100.553C360.057 94.6765 354.643 90.5625 348.766 91.3644C342.889 92.1663 338.775 97.5803 339.577 103.457C340.379 109.334 345.793 113.448 351.67 112.646Z" fill="#407BFF"/>
<path d="M501.254 329.742L500.555 378.567L561.635 379.441L562.334 330.616L501.254 329.742Z" fill="#EBEBEB"/>
<path d="M562.334 330.605H557.828L545.301 330.515L501.262 330.064L501.623 329.719C501.428 344.258 501.202 360.916 500.962 378.534L500.587 378.144H502.689H504.792H508.968L517.199 378.264L533.045 378.504L561.583 378.97L561.267 379.285C561.538 364.626 561.778 352.474 561.928 343.928C562.033 339.692 562.109 336.343 562.154 334.015C562.154 332.903 562.154 332.017 562.229 331.386C562.304 330.755 562.229 330.455 562.229 330.455C562.229 330.455 562.229 330.74 562.229 331.311V333.88C562.229 336.193 562.229 339.512 562.229 343.733C562.154 352.324 562.033 364.55 561.898 379.3V379.615H561.568L532.955 379.255L517.109 379.045L508.893 378.925H504.702H502.599H500.496C500.842 379.285 500.016 378.444 500.106 378.519C500.376 360.901 500.617 344.243 500.842 329.704V329.359H501.202L545.466 330.17L557.903 330.44L561.177 330.53H562.003L562.334 330.605Z" fill="#263238"/>
<path d="M503.022 332.852L502.411 375.534L559.196 376.347L559.807 333.664L503.022 332.852Z" fill="#407BFF"/>
<path opacity="0.3" d="M503.022 332.852L502.411 375.534L559.196 376.347L559.807 333.664L503.022 332.852Z" fill="white"/>
<path d="M502.704 375.515L522.921 349.275L534.967 366.052L543.424 357.296L559.495 376.341L502.704 375.515Z" fill="#407BFF"/>
<path d="M540.465 346.271C540.464 347.167 540.197 348.042 539.697 348.785C539.197 349.528 538.487 350.105 537.658 350.443C536.828 350.781 535.917 350.864 535.04 350.681C534.163 350.499 533.361 350.059 532.735 349.418C532.109 348.777 531.689 347.965 531.527 347.084C531.365 346.203 531.469 345.294 531.827 344.473C532.184 343.651 532.778 342.955 533.532 342.473C534.287 341.991 535.168 341.744 536.064 341.765C537.241 341.793 538.36 342.279 539.182 343.121C540.005 343.964 540.465 345.094 540.465 346.271Z" fill="#407BFF"/>
<path d="M148.833 160.945L147.863 228.708L232.627 229.921L233.597 162.158L148.833 160.945Z" fill="#EBEBEB"/>
<path d="M233.591 162.216H231.969H227.358L209.995 162.066L148.818 161.36L149.179 161.029C148.908 181.201 148.593 204.317 148.247 228.785C148.338 228.875 147.526 228.034 147.887 228.394H149.389H150.891H153.805L159.603 228.484L171.033 228.649L193.022 228.98L232.72 229.596L232.389 229.911C232.75 209.544 233.05 192.647 233.261 180.811C233.381 174.908 233.471 170.297 233.531 167.052C233.531 165.55 233.606 164.274 233.621 163.418C233.636 162.561 233.621 162.156 233.621 162.156C233.621 162.156 233.621 162.546 233.621 163.358C233.621 164.169 233.621 165.385 233.621 166.932C233.621 170.117 233.621 174.728 233.516 180.6C233.381 192.496 233.201 209.469 232.975 229.926V230.242H232.645L192.917 229.806L170.928 229.491L159.512 229.34L153.7 229.25H150.786H149.284H147.782C148.112 229.596 147.286 228.77 147.376 228.845C147.752 204.377 148.082 181.261 148.383 161.09V160.729H148.728L210.115 161.78L227.403 162.126L231.909 162.231H233.065L233.591 162.216Z" fill="#263238"/>
<path d="M151.699 165.253L150.852 224.485L229.653 225.613L230.501 166.38L151.699 165.253Z" fill="#407BFF"/>
<path d="M150.846 224.489L178.888 188.05L195.62 211.331L207.351 199.18L229.656 225.615L150.846 224.489Z" fill="#407BFF"/>
<path d="M203.251 183.89C203.233 185.117 202.851 186.31 202.155 187.32C201.459 188.33 200.478 189.111 199.338 189.564C198.198 190.017 196.949 190.122 195.749 189.865C194.55 189.608 193.453 189.001 192.598 188.121C191.744 187.241 191.169 186.128 190.947 184.921C190.725 183.714 190.866 182.469 191.352 181.343C191.838 180.216 192.647 179.259 193.677 178.592C194.706 177.925 195.911 177.579 197.138 177.597C197.952 177.608 198.757 177.78 199.505 178.103C200.253 178.426 200.93 178.893 201.498 179.477C202.065 180.061 202.512 180.752 202.813 181.509C203.114 182.266 203.263 183.075 203.251 183.89Z" fill="#407BFF"/>
<path opacity="0.1" d="M150.846 224.489L178.888 188.05L195.62 211.331L207.351 199.18L229.656 225.615L150.846 224.489Z" fill="black"/>
<g opacity="0.1">
<path opacity="0.1" d="M203.251 183.89C203.233 185.117 202.851 186.31 202.155 187.32C201.459 188.33 200.478 189.111 199.338 189.564C198.198 190.017 196.949 190.122 195.749 189.865C194.55 189.608 193.453 189.001 192.598 188.121C191.744 187.241 191.169 186.128 190.947 184.921C190.725 183.714 190.866 182.469 191.352 181.343C191.838 180.216 192.647 179.259 193.677 178.592C194.706 177.925 195.911 177.579 197.138 177.597C197.952 177.608 198.757 177.78 199.505 178.103C200.253 178.426 200.93 178.893 201.498 179.477C202.065 180.061 202.512 180.752 202.813 181.509C203.114 182.266 203.263 183.075 203.251 183.89Z" fill="black"/>
</g>
<path d="M435.341 137.802L434.693 183.053L491.298 183.863L491.946 138.612L435.341 137.802Z" fill="#EBEBEB"/>
<path d="M491.935 138.59C491.841 138.605 491.744 138.605 491.65 138.59H487.744L476.134 138.544L435.325 138.184L435.67 137.839C435.49 151.357 435.295 166.752 435.069 183.079L434.694 182.688H436.646H438.599H442.474L450.089 182.793L464.779 183.019L491.289 183.454L490.959 183.77C491.229 170.252 491.439 158.927 491.605 151.011C491.695 147.076 491.77 143.982 491.815 141.819C491.815 140.782 491.815 139.971 491.89 139.371C491.965 138.77 491.89 138.514 491.89 138.514C491.904 138.78 491.904 139.045 491.89 139.311V141.684C491.89 143.832 491.89 146.911 491.89 150.801C491.815 158.776 491.71 170.117 491.59 183.845V184.175H491.274L464.764 183.845L450.074 183.65L442.444 183.544H438.569H436.616H434.664L434.273 183.154C434.529 166.812 434.754 151.372 434.964 137.899V137.433H435.325L476.344 138.199L487.88 138.454H490.884H491.65L491.935 138.59Z" fill="#263238"/>
<path d="M437.237 140.654L436.671 180.212L489.296 180.966L489.862 141.407L437.237 140.654Z" fill="#407BFF"/>
<path d="M436.676 180.21L455.406 155.893L466.566 171.438L474.422 163.327L489.307 180.976L436.676 180.21Z" fill="#407BFF"/>
<path d="M471.628 153.114C471.616 153.934 471.361 154.732 470.896 155.406C470.431 156.081 469.775 156.603 469.013 156.906C468.252 157.209 467.417 157.279 466.615 157.107C465.814 156.935 465.081 156.53 464.509 155.942C463.938 155.354 463.554 154.61 463.406 153.803C463.257 152.997 463.352 152.165 463.676 151.412C464.001 150.659 464.542 150.019 465.23 149.574C465.918 149.128 466.723 148.897 467.543 148.908C468.641 148.928 469.687 149.381 470.452 150.169C471.217 150.957 471.64 152.016 471.628 153.114Z" fill="#407BFF"/>
<path opacity="0.1" d="M436.676 180.21L455.406 155.893L466.566 171.438L474.422 163.327L489.307 180.976L436.676 180.21Z" fill="black"/>
<g opacity="0.1">
<path opacity="0.1" d="M471.628 153.114C471.616 153.934 471.361 154.732 470.896 155.406C470.431 156.081 469.775 156.603 469.013 156.906C468.252 157.209 467.417 157.279 466.615 157.107C465.814 156.935 465.081 156.53 464.509 155.942C463.938 155.354 463.554 154.61 463.406 153.803C463.257 152.997 463.352 152.165 463.676 151.412C464.001 150.659 464.542 150.019 465.23 149.574C465.918 149.128 466.723 148.897 467.543 148.908C468.641 148.928 469.687 149.381 470.452 150.169C471.217 150.957 471.64 152.016 471.628 153.114Z" fill="black"/>
</g>
<path d="M258.575 200.009L256.06 375.725L475.855 378.871L478.37 203.155L258.575 200.009Z" fill="#F5F5F5"/>
<path d="M478.357 203.146H477.306H474.302L462.391 203.025L417.421 202.47L258.569 200.367L258.915 200.021C258.179 252.306 257.413 312.266 256.451 375.755L256.061 375.365L475.849 378.504L475.518 378.834C476.344 325.889 477.02 282.001 477.516 251.33C477.771 235.979 477.966 223.948 478.102 215.732C478.177 211.632 478.237 208.493 478.282 206.36C478.327 204.227 478.357 203.115 478.357 203.115C478.357 203.115 478.357 204.182 478.357 206.285C478.357 208.387 478.357 211.527 478.267 215.612C478.177 223.798 478.027 235.814 477.846 251.134C477.441 281.85 476.87 325.799 476.194 378.804V379.135H475.879L256.076 376.056H255.685V375.635C256.602 312.206 257.473 252.246 258.239 199.901V199.556H258.584L417.556 202.109L462.451 202.845L474.302 203.055H477.306L478.357 203.146Z" fill="#263238"/>
<path d="M265.999 211.188L263.801 364.782L468.142 367.706L470.34 214.113L265.999 211.188Z" fill="#407BFF"/>
<path opacity="0.2" d="M263.796 364.776L336.538 270.315L379.886 330.68L410.331 299.183L468.143 367.69L263.796 364.776Z" fill="black"/>
<g opacity="0.2">
<path opacity="0.2" d="M399.682 259.531C399.637 262.715 398.649 265.815 396.842 268.438C395.035 271.061 392.491 273.089 389.531 274.266C386.571 275.443 383.329 275.715 380.214 275.049C377.1 274.383 374.253 272.808 372.033 270.523C369.814 268.239 368.322 265.347 367.746 262.215C367.17 259.082 367.537 255.849 368.798 252.925C370.06 250 372.161 247.516 374.835 245.785C377.509 244.055 380.636 243.157 383.821 243.204C388.088 243.271 392.153 245.028 395.127 248.088C398.1 251.149 399.738 255.264 399.682 259.531Z" fill="black"/>
</g>
<path d="M237.391 437.548L234.778 435.445V435.204L234.672 435.34L217.46 421.521L224.849 409.355L207.036 396.348C207.036 397.219 190.514 421.882 192.752 426.658C195.936 433.492 217.505 447.145 226.336 452.538C223.929 452.839 221.545 453.306 219.202 453.934C216.949 454.67 224.294 456.623 226.066 456.938C226.757 457.074 228.184 455.977 229.686 454.505L230.106 454.746L230.572 453.634C232.195 451.978 233.7 450.212 235.078 448.347C235.473 446.4 235.549 444.401 235.303 442.429L237.391 437.548Z" fill="#FFBE9D"/>
<path d="M290.547 431.495L293.16 429.407V429.166L293.265 429.302L312.957 416.73L293.941 401.289L310.388 387.02C323.095 396.032 340.083 407.763 335.171 420.605C332.498 427.649 310.433 441.107 301.602 446.485C304.008 446.801 306.391 447.273 308.736 447.896C310.974 448.632 303.644 450.57 301.872 450.9C301.181 451.051 299.754 449.939 298.237 448.482L297.832 448.723L297.396 447.596C295.774 445.939 294.269 444.173 292.89 442.309C292.512 440.364 292.441 438.373 292.68 436.406L290.547 431.495Z" fill="#FFBE9D"/>
<path d="M259.741 373.202C261.378 373.324 263.024 373.115 264.579 372.588C266.134 372.06 267.567 371.225 268.792 370.132C270.017 369.038 271.01 367.709 271.71 366.224C272.41 364.738 272.804 363.127 272.868 361.486C273.124 354.848 273.349 348.134 273.349 348.134C273.349 348.134 283.412 347.187 284.148 337.214C284.884 327.241 284.539 304.245 284.539 304.245C279.02 301.463 272.857 300.205 266.689 300.601C260.521 300.997 254.57 303.033 249.452 306.498L247.95 307.55L248.506 361.156C248.541 364.203 249.712 367.127 251.79 369.355C253.869 371.583 256.704 372.955 259.741 373.202Z" fill="#FFBE9D"/>
<path d="M259.275 291.298C253.267 291.118 247.71 295.083 244.901 299.964C242.092 304.846 241.477 310.478 241.206 315.991C240.891 326.791 241.147 337.601 241.972 348.374C241.928 349.188 242.172 349.991 242.663 350.642C243.405 351.255 244.33 351.603 245.292 351.633C263.726 354.192 282.423 354.222 300.866 351.723C302.082 349.53 300.385 346.917 298.417 345.235C296.45 343.552 294.016 342.005 293.311 339.647C292.199 335.922 295.894 331.927 294.452 328.292C293.371 325.559 289.781 324.222 288.519 321.548C286.401 317.042 291.869 311.65 289.435 307.309C288.174 305.041 285.215 304.035 283.427 302.142C281.775 300.475 281.054 298.207 279.627 296.375C277.075 293.52 273.505 291.778 269.684 291.523C266.287 290.968 262.829 290.892 259.41 291.298" fill="#263238"/>
<path d="M245.066 302.698C242.498 303.96 241.386 307.024 241.011 309.863C240.635 312.701 240.741 315.69 239.509 318.289C238.277 320.887 235.619 323.2 234.928 326.189C234.027 330.049 236.58 334.616 234.282 337.86C232.78 339.948 229.881 340.473 228.049 342.261C225.525 344.739 225.751 348.809 226.156 352.324L259.425 352.039" fill="#263238"/>
<path d="M257.112 299.198C259.036 299.179 260.875 298.407 262.237 297.049C263.598 295.69 264.374 293.852 264.397 291.929C264.281 290.005 263.501 288.181 262.188 286.77C260.875 285.359 259.113 284.448 257.202 284.193C255.283 284.034 253.36 284.46 251.687 285.414C250.014 286.369 248.67 287.807 247.83 289.541C247.002 291.116 246.803 292.946 247.274 294.662C247.88 296.334 249.091 297.717 250.669 298.538C252.256 299.42 254.042 299.883 255.858 299.883C257.674 299.883 259.46 299.42 261.048 298.538" fill="#263238"/>
<path d="M263.691 292.77C263.818 293.649 263.671 294.546 263.271 295.338C262.47 297.355 260.922 298.984 258.949 299.888C256.977 300.792 254.732 300.9 252.681 300.19C251.179 299.634 250.398 298.898 250.458 298.838C250.519 298.778 251.345 299.273 252.832 299.649C254.752 300.184 256.8 300.025 258.615 299.201C260.431 298.377 261.898 296.941 262.76 295.143C263.451 293.731 263.556 292.74 263.691 292.77Z" fill="#407BFF"/>
<path d="M298.207 408.724L289.931 399.862L287.197 412.93L287.768 423.083C287.768 423.594 298.568 450.27 298.568 450.27C302.984 460.395 304.767 471.473 303.749 482.472L224.654 480.174C224.654 480.174 225.811 457.149 234.703 442.084C238.758 435.189 237.707 424.796 235.829 416.91C235.228 414.417 234.432 410.301 234.117 407.748V407.312L229.971 414.552L205.203 396.663C213.254 381.148 225.06 365.467 226.472 364.295C231.623 359.977 238.105 357.569 244.826 357.476L275.632 357.746C277.257 357.912 278.863 358.24 280.423 358.723C284.193 358.993 290.862 362.177 298.252 369.237C304.485 375.245 311.425 382.454 318.754 387.801L298.177 408.649" fill="#455A64"/>
<path d="M246.899 358.407C246.899 358.407 247.079 358.527 247.394 358.843C247.822 359.314 248.213 359.816 248.566 360.345C249.916 362.24 250.782 364.437 251.089 366.743C251.35 368.464 251.215 370.221 250.694 371.882C250.174 373.542 249.282 375.062 248.085 376.326C246.665 377.859 244.8 378.909 242.753 379.33C240.605 379.766 238.427 379.33 236.34 379.691C235.327 379.824 234.37 380.234 233.576 380.877C232.824 381.552 232.211 382.369 231.774 383.28C230.812 385.068 230.272 387.02 229.115 388.673C228.596 389.511 227.893 390.221 227.057 390.745C226.242 391.218 225.311 391.457 224.369 391.436C222.748 391.348 221.17 390.885 219.758 390.084C217.7 389.013 215.885 387.531 214.426 385.729C214.038 385.252 213.682 384.75 213.359 384.227C213.149 383.866 213.044 383.656 213.074 383.641C213.104 383.626 213.599 384.377 214.666 385.563C216.168 387.244 217.978 388.62 219.998 389.619C221.346 390.343 222.84 390.754 224.369 390.82C225.193 390.828 226.003 390.61 226.712 390.19C227.439 389.699 228.054 389.059 228.514 388.312C229.521 386.81 230.106 384.827 231.083 382.95C231.571 381.956 232.244 381.064 233.065 380.321C233.964 379.58 235.051 379.101 236.205 378.94C238.488 378.609 240.711 379.015 242.603 378.609C244.495 378.225 246.225 377.271 247.56 375.875C248.791 374.609 249.698 373.063 250.203 371.369C250.636 369.909 250.774 368.378 250.609 366.863C250.344 364.627 249.584 362.477 248.386 360.57C247.47 359.098 246.839 358.452 246.899 358.407Z" fill="#F5F5F5"/>
<path d="M249.572 392.833C249.988 392.615 250.455 392.511 250.924 392.533C252.22 392.529 253.481 392.952 254.514 393.734C255.24 394.267 255.831 394.961 256.241 395.762C256.714 396.688 256.897 397.735 256.767 398.766C256.67 399.978 256.198 401.129 255.416 402.06C254.634 402.991 253.581 403.654 252.405 403.958C251.228 404.262 249.985 404.192 248.85 403.757C247.715 403.321 246.744 402.543 246.073 401.53C245.451 400.681 245.096 399.667 245.051 398.616C245.025 397.71 245.21 396.809 245.592 395.987C246.106 394.8 247.006 393.821 248.145 393.209C248.545 392.964 248.999 392.824 249.467 392.803C249.467 392.878 249.017 393.013 248.311 393.479C247.309 394.143 246.534 395.097 246.088 396.213C245.747 397.007 245.619 397.876 245.716 398.735C245.814 399.593 246.133 400.412 246.643 401.109C247.242 401.989 248.098 402.663 249.094 403.038C250.09 403.414 251.178 403.472 252.208 403.206C253.239 402.94 254.162 402.361 254.852 401.551C255.541 400.74 255.964 399.736 256.061 398.676C256.162 397.825 256.04 396.963 255.709 396.173C255.377 395.384 254.846 394.693 254.168 394.17C253.238 393.414 252.103 392.954 250.909 392.848C250.068 392.788 249.587 392.893 249.572 392.833Z" fill="#F5F5F5"/>
<path d="M305.281 377.693C304.688 378.107 304.054 378.459 303.389 378.744C301.634 379.638 299.805 380.376 297.922 380.952C295.065 381.838 292.007 381.838 289.15 380.952C287.441 380.408 285.917 379.399 284.749 378.038C283.563 376.611 282.827 374.869 281.67 373.532C281.136 372.857 280.431 372.339 279.627 372.03C278.819 371.769 277.963 371.687 277.119 371.79C275.41 372.134 273.661 372.241 271.922 372.105C270.427 371.861 269.021 371.231 267.844 370.278C266.666 369.324 265.758 368.08 265.208 366.668C264.514 364.762 264.514 362.672 265.208 360.765C265.392 360.24 265.634 359.736 265.929 359.263C266.139 358.963 266.259 358.813 266.29 358.828C265.99 359.474 265.724 360.136 265.493 360.81C264.958 362.655 265.047 364.625 265.749 366.413C266.296 367.703 267.165 368.831 268.272 369.691C269.379 370.551 270.687 371.113 272.072 371.324C273.753 371.442 275.442 371.32 277.089 370.964C278.05 370.845 279.025 370.943 279.943 371.249C280.881 371.619 281.701 372.237 282.316 373.037C283.563 374.539 284.284 376.296 285.32 377.618C286.394 378.872 287.791 379.807 289.36 380.321C292.081 381.188 294.999 381.225 297.741 380.427C299.616 379.907 301.453 379.259 303.239 378.489C303.895 378.165 304.579 377.899 305.281 377.693Z" fill="#F5F5F5"/>
<path d="M294.392 438.284C294.367 438.363 294.331 438.438 294.287 438.509C294.197 438.644 294.077 438.854 293.896 439.11C293.346 439.845 292.694 440.497 291.959 441.047C290.782 441.933 289.43 442.558 287.993 442.88C286.075 443.284 284.08 443.117 282.256 442.399C280.029 441.535 278.156 439.948 276.939 437.893C275.587 435.82 274.536 433.207 272.237 431.885C270.987 431.269 269.641 430.868 268.257 430.698C266.703 430.5 265.236 429.871 264.022 428.881C262.791 427.775 261.931 426.316 261.557 424.704C261.184 423.092 261.315 421.404 261.934 419.869C262.671 418.363 263.757 417.055 265.103 416.054C266.365 415.078 267.686 414.252 268.813 413.29C269.957 412.425 270.841 411.261 271.366 409.926C271.739 408.597 271.821 407.204 271.607 405.84C271.4 404.482 271.274 403.113 271.231 401.74C271.215 400.381 271.59 399.046 272.313 397.895C273.005 396.914 273.9 396.093 274.936 395.487C275.972 394.881 277.126 394.503 278.321 394.38C280.275 394.167 282.249 394.549 283.983 395.477C285.281 396.14 286.471 396.996 287.513 398.015C288.167 398.647 288.77 399.33 289.315 400.058C289.519 400.306 289.7 400.572 289.856 400.854C289.856 400.854 289.045 399.817 287.303 398.24C286.249 397.287 285.066 396.488 283.788 395.867C282.123 395.028 280.246 394.704 278.396 394.936C277.288 395.061 276.221 395.422 275.264 395.994C274.308 396.567 273.486 397.338 272.853 398.255C272.212 399.302 271.888 400.513 271.922 401.74C271.983 403.087 272.114 404.431 272.313 405.765C272.56 407.232 272.478 408.735 272.072 410.166C271.513 411.635 270.556 412.92 269.309 413.876C268.122 414.882 266.8 415.709 265.584 416.67C264.324 417.55 263.294 418.719 262.58 420.079C262.015 421.464 261.893 422.99 262.229 424.447C262.565 425.904 263.343 427.222 264.457 428.22C266.605 430.263 269.939 429.722 272.523 431.224C273.72 431.983 274.723 433.012 275.452 434.228C276.173 435.355 276.774 436.496 277.419 437.548C278.543 439.509 280.287 441.041 282.376 441.903C284.101 442.613 285.995 442.806 287.828 442.459C289.22 442.189 290.54 441.631 291.703 440.822C292.709 440.1 293.613 439.246 294.392 438.284Z" fill="#F5F5F5"/>
<path d="M258.855 456.458C259.247 456.036 259.522 455.518 259.651 454.956C259.712 454.148 259.589 453.338 259.289 452.586C258.99 451.833 258.523 451.159 257.923 450.615C257.097 449.767 256.381 448.818 255.791 447.791C255.194 446.533 254.95 445.137 255.085 443.751C255.235 440.867 256.587 437.938 256.241 434.814C256.208 434.081 256.018 433.364 255.684 432.711C255.349 432.058 254.879 431.484 254.304 431.029C253.131 430.275 251.743 429.927 250.353 430.038C247.65 430.173 245.217 431.179 243.039 431.209C242.173 431.279 241.302 431.175 240.477 430.905C239.651 430.634 238.888 430.201 238.232 429.632C237.891 429.313 237.615 428.93 237.421 428.506C237.286 428.205 237.256 428.04 237.286 428.04C237.614 428.541 238.002 429 238.442 429.407C239.73 430.383 241.342 430.829 242.948 430.653C245.021 430.563 247.364 429.527 250.263 429.317C251.846 429.158 253.436 429.545 254.769 430.413C255.433 430.931 255.979 431.585 256.37 432.331C256.761 433.077 256.989 433.898 257.037 434.739C257.353 438.148 255.971 441.092 255.821 443.751C255.676 445.016 255.873 446.297 256.391 447.461C256.938 448.45 257.599 449.373 258.359 450.209C259.019 450.951 259.529 451.813 259.861 452.748C260.09 453.466 260.132 454.232 259.981 454.971C259.621 456.202 258.825 456.488 258.855 456.458Z" fill="#F5F5F5"/>
<path d="M227.463 463.848C225.961 466.101 166.902 688.577 166.902 688.577L187.75 695.156L267.356 483.644L227.463 463.848Z" fill="#FFBE9D"/>
<path d="M263.436 481.646L307.294 693.323L331.416 694.284L303.734 470.441L263.436 481.646Z" fill="#FFBE9D"/>
<path d="M228.574 455.962L184.851 612.035L217.114 625.388L263.451 494.158L291.508 630.69L325.348 624.021L302.292 458.425L299.138 458.005C297.223 457.759 295.28 457.861 293.401 458.305L291.298 458.816C288.909 459.394 286.417 459.394 284.028 458.816L282.526 458.455C280.302 457.93 277.99 457.899 275.752 458.365L272.012 459.131C269.257 459.711 266.396 459.529 263.736 458.606L260.011 457.329C257.493 456.459 254.794 456.247 252.171 456.713L248.641 457.344C246.681 457.689 244.672 457.659 242.723 457.254L236.715 456.022C234.243 455.509 231.699 455.447 229.205 455.842L228.574 455.962Z" fill="#263238"/>
<path d="M287.528 485.642C286.889 485.899 286.225 486.086 285.545 486.197C284.253 486.498 282.376 486.888 280.063 487.354C275.422 488.285 268.993 489.427 261.844 490.448C254.694 491.469 248.205 492.19 243.489 492.596C241.131 492.806 239.224 492.956 237.902 493.016C237.218 493.092 236.528 493.092 235.844 493.016C236.509 492.848 237.188 492.737 237.872 492.686L243.429 492.025C248.13 491.469 254.604 490.673 261.738 489.652C268.873 488.631 275.256 487.564 279.958 486.783L285.485 485.867C286.158 485.732 286.842 485.657 287.528 485.642Z" fill="#455A64"/>
<path d="M332.858 694.239L332.753 691.716L307.219 692.452L307.429 700.743H309.006C316.021 700.908 344.679 701.164 349.305 699.722C354.547 698.16 332.858 694.239 332.858 694.239Z" fill="#407BFF"/>
<g opacity="0.6">
<path opacity="0.6" d="M316.682 700.323C316.227 698.3 315.012 696.531 313.287 695.381C311.525 694.186 309.396 693.654 307.279 693.879L307.474 700.473L316.682 700.323Z" fill="white"/>
</g>
<g opacity="0.6">
<path opacity="0.6" d="M343.462 696.507C343.462 696.507 351.077 698.325 350.176 699.511C349.275 700.698 320.302 701.449 307.489 700.743V700.217L341.284 699.602C341.284 699.602 341.99 696.598 343.462 696.507Z" fill="white"/>
</g>
<path d="M307.129 700.217C307.274 700.231 307.42 700.231 307.564 700.217H308.811H313.422C317.327 700.217 322.72 700.217 328.653 700.067C334.585 699.917 339.993 699.662 343.883 699.436L348.479 699.136L349.741 699.031C349.881 699.041 350.021 699.041 350.161 699.031H349.726H348.479L343.868 699.241C339.978 699.406 334.601 699.632 328.653 699.782C322.705 699.932 317.327 699.992 313.422 700.007H308.811H307.564L307.129 700.217Z" fill="#263238"/>
<path d="M341.314 699.932C341.496 699.217 341.764 698.526 342.111 697.874C342.536 697.251 343.041 696.686 343.613 696.192C342.85 696.452 342.213 696.988 341.825 697.694C341.365 698.343 341.182 699.148 341.314 699.932Z" fill="#263238"/>
<path d="M333.729 696.628C333.729 696.628 334.135 696.267 334.495 695.711C334.856 695.156 335.081 694.675 335.006 694.63C334.931 694.585 334.586 695.005 334.225 695.561C333.865 696.117 333.654 696.598 333.729 696.628Z" fill="#263238"/>
<path d="M331.642 695.681C331.642 695.681 332.092 695.471 332.513 695.096C332.933 694.72 333.234 694.375 333.189 694.315C333.144 694.254 332.723 694.51 332.302 694.9C331.882 695.291 331.581 695.621 331.642 695.681Z" fill="#263238"/>
<path d="M330.275 693.488C330.702 693.62 331.152 693.661 331.597 693.609C332.044 693.644 332.493 693.588 332.918 693.443C332.491 693.31 332.041 693.27 331.597 693.323C331.149 693.288 330.7 693.344 330.275 693.488Z" fill="#263238"/>
<path d="M329.779 691.926C330.725 692.361 331.802 692.409 332.783 692.062C332.284 692.015 331.781 692.015 331.281 692.062C330.785 691.977 330.283 691.932 329.779 691.926Z" fill="#263238"/>
<path d="M334.525 694.555C335.062 694.646 335.611 694.646 336.148 694.555C336.734 694.477 337.312 694.346 337.875 694.164C338.212 694.059 338.539 693.923 338.851 693.759C338.946 693.71 339.029 693.641 339.096 693.559C339.163 693.476 339.213 693.381 339.242 693.278C339.264 693.164 339.251 693.046 339.205 692.939C339.16 692.832 339.084 692.741 338.986 692.677C338.359 692.401 337.659 692.34 336.993 692.503C336.328 692.666 335.735 693.044 335.306 693.578C335.067 693.883 334.898 694.237 334.811 694.615C334.775 694.748 334.775 694.888 334.811 695.02C334.963 694.545 335.203 694.102 335.517 693.714C335.874 693.288 336.35 692.98 336.884 692.827C337.507 692.588 338.197 692.588 338.821 692.827C339.091 692.993 339.001 693.278 338.716 693.443C338.431 693.607 338.129 693.738 337.815 693.834C337.27 694.023 336.713 694.174 336.148 694.284C335.141 694.495 334.525 694.51 334.525 694.555Z" fill="#263238"/>
<path d="M334.946 694.615C335.042 694.459 335.104 694.286 335.13 694.105C335.156 693.924 335.144 693.74 335.096 693.564C335.034 693.162 334.869 692.784 334.616 692.467C334.467 692.24 334.265 692.054 334.026 691.925C333.787 691.796 333.52 691.73 333.249 691.731C333.17 691.744 333.094 691.772 333.026 691.815C332.959 691.858 332.901 691.914 332.856 691.98C332.811 692.046 332.78 692.121 332.765 692.199C332.749 692.278 332.751 692.359 332.768 692.437C332.806 692.682 332.904 692.915 333.053 693.113C333.28 693.445 333.548 693.748 333.85 694.014C334.118 694.285 334.448 694.486 334.811 694.6C334.811 694.6 334.48 694.329 334.015 693.864C333.742 693.596 333.5 693.299 333.294 692.978C333.068 692.662 332.903 692.092 333.294 692.016C333.684 691.941 334.12 692.332 334.375 692.617C334.61 692.902 334.78 693.236 334.871 693.594C334.93 693.931 334.955 694.273 334.946 694.615Z" fill="#263238"/>
<path d="M307.444 693.744C307.444 693.744 308.165 693.669 309.322 693.744C310.806 693.878 312.229 694.395 313.452 695.246C314.629 696.072 315.55 697.211 316.111 698.535C316.531 699.541 316.592 700.217 316.652 700.217C316.674 700.058 316.674 699.896 316.652 699.737C316.585 699.308 316.479 698.885 316.336 698.475C315.81 697.078 314.873 695.873 313.648 695.02C312.38 694.147 310.89 693.652 309.352 693.594C308.885 693.564 308.416 693.589 307.955 693.669C307.782 693.667 307.61 693.693 307.444 693.744Z" fill="#263238"/>
<path d="M319.806 697.934C322.27 698.3 324.777 698.254 327.226 697.799C327.226 697.724 325.558 697.799 323.516 697.889C321.473 697.979 319.821 697.844 319.806 697.934Z" fill="#263238"/>
<path d="M314.834 698.055C314.834 698.055 314.984 698.385 315.165 698.73C315.345 699.076 315.45 699.391 315.525 699.376C315.6 699.361 315.645 699.001 315.435 698.61C315.225 698.22 314.894 697.994 314.834 698.055Z" fill="#263238"/>
<path d="M312.897 695.937C312.897 695.937 313.017 696.237 313.287 696.477C313.557 696.718 313.813 696.868 313.873 696.808C313.933 696.748 313.768 696.507 313.497 696.267C313.227 696.027 312.957 695.877 312.897 695.937Z" fill="#263238"/>
<path d="M310.193 695.02C310.193 695.02 310.538 695.02 310.914 695.201C311.289 695.381 311.575 695.486 311.635 695.441C311.695 695.396 311.485 695.066 311.004 694.93C310.523 694.795 310.163 694.945 310.193 695.02Z" fill="#263238"/>
<path d="M308.271 694.6C308.271 694.675 308.391 694.795 308.601 694.87C308.811 694.945 309.006 694.87 309.037 694.87C309.067 694.87 308.916 694.675 308.706 694.615C308.496 694.555 308.286 694.525 308.271 694.6Z" fill="#263238"/>
<path d="M167.067 683.996L163.297 700.593H188.786L189.883 689.794L167.067 683.996Z" fill="#407BFF"/>
<path d="M189.252 698.175C188.023 698.395 186.774 698.476 185.527 698.415C183.229 698.415 180.06 698.415 176.515 698.265L167.503 697.874C166.263 697.893 165.025 697.782 163.808 697.544C165.033 697.333 166.277 697.258 167.518 697.319C169.816 697.319 172.985 697.318 176.53 697.484L185.467 697.874C186.735 697.853 188.003 697.954 189.252 698.175Z" fill="#263238"/>
<path d="M178.513 687.225C178.766 689.009 178.766 690.819 178.513 692.602C178.51 694.406 178.257 696.2 177.762 697.934C177.49 696.152 177.49 694.339 177.762 692.557C177.747 690.752 178 688.955 178.513 687.225Z" fill="#263238"/>
<path opacity="0.6" d="M163.297 700.593H188.786L189.027 698.175L163.763 697.559L163.297 700.308" fill="white"/>
<path d="M183.559 326.174C205.136 326.174 222.626 308.683 222.626 287.107C222.626 265.531 205.136 248.04 183.559 248.04C161.983 248.04 144.492 265.531 144.492 287.107C144.492 308.683 161.983 326.174 183.559 326.174Z" fill="#455A64"/>
<path d="M201.028 319.325L227.853 326.189L215.252 303.945L201.028 319.325Z" fill="#455A64"/>
<path d="M173.106 283.953L167.383 290.682L182.072 302.863L203.341 281.76L197.138 276.248L181.652 291.193L173.106 283.953Z" fill="white"/>
</svg>
